<svg width="644" height="123" viewBox="0 0 644 123" fill="none" xmlns="http://www.w3.org/2000/svg">
<path d="M24.48 24.704H13.344V50H3.84V16.4H33.984V50H24.48V24.704ZM48.7241 60.56H40.4201V27.92H48.7241V60.56ZM66.6281 38.96C66.6281 41.584 66.1161 43.776 65.0921 45.536C64.1001 47.296 62.8201 48.624 61.2521 49.52C59.6841 50.416 58.0201 50.864 56.2601 50.864C54.3081 50.864 52.6281 50.368 51.2201 49.376C49.8441 48.384 48.7881 46.992 48.0521 45.2C47.3481 43.408 46.9961 41.328 46.9961 38.96C46.9961 36.56 47.3481 34.48 48.0521 32.72C48.7881 30.928 49.8441 29.536 51.2201 28.544C52.6281 27.552 54.3081 27.056 56.2601 27.056C58.0201 27.056 59.6841 27.504 61.2521 28.4C62.8201 29.296 64.1001 30.624 65.0921 32.384C66.1161 34.112 66.6281 36.304 66.6281 38.96ZM57.8921 38.96C57.8921 37.968 57.6841 37.136 57.2681 36.464C56.8521 35.76 56.2921 35.232 55.5881 34.88C54.8841 34.528 54.1001 34.352 53.2361 34.352C52.5001 34.352 51.7801 34.528 51.0761 34.88C50.4041 35.2 49.8441 35.696 49.3961 36.368C48.9481 37.04 48.7241 37.904 48.7241 38.96C48.7241 40.016 48.9481 40.88 49.3961 41.552C49.8441 42.224 50.4041 42.736 51.0761 43.088C51.7801 43.408 52.5001 43.568 53.2361 43.568C54.1001 43.568 54.8841 43.392 55.5881 43.04C56.2921 42.688 56.8521 42.16 57.2681 41.456C57.6841 40.752 57.8921 39.92 57.8921 38.96ZM74.1574 40.688V36.416H85.9654C85.8694 35.616 85.6774 34.944 85.3894 34.4C85.1014 33.856 84.7014 33.44 84.1894 33.152C83.6774 32.864 83.0374 32.72 82.2694 32.72C81.3734 32.72 80.6054 32.928 79.9654 33.344C79.3574 33.728 78.8774 34.304 78.5254 35.072C78.2054 35.84 78.0454 36.784 78.0454 37.904L77.9494 38.96C77.9494 40.4 78.1574 41.552 78.5734 42.416C78.9894 43.248 79.5494 43.856 80.2534 44.24C80.9574 44.592 81.6934 44.768 82.4614 44.768C83.2934 44.768 84.0294 44.672 84.6694 44.48C85.3094 44.256 85.8694 43.968 86.3494 43.616C86.8294 43.232 87.2294 42.768 87.5494 42.224L95.0374 43.712C94.3014 45.088 93.3894 46.288 92.3014 47.312C91.2134 48.304 89.9014 49.088 88.3654 49.664C86.8294 50.208 84.9574 50.48 82.7494 50.48C79.8694 50.48 77.4534 49.984 75.5014 48.992C73.5494 48 72.0774 46.64 71.0854 44.912C70.0934 43.152 69.5974 41.168 69.5974 38.96C69.5974 38.544 69.6134 38.144 69.6454 37.76C69.6774 37.376 69.7254 36.992 69.7894 36.608C70.1094 34.784 70.7814 33.184 71.8054 31.808C72.8294 30.432 74.2214 29.36 75.9814 28.592C77.7734 27.824 79.9334 27.44 82.4614 27.44C85.2134 27.44 87.5014 27.888 89.3254 28.784C91.1494 29.68 92.5254 30.96 93.4534 32.624C94.3814 34.256 94.8454 36.24 94.8454 38.576C94.8454 38.768 94.8454 39.056 94.8454 39.44C94.8454 39.824 94.8134 40.24 94.7494 40.688H74.1574ZM122.723 34.88L99.2505 51.68L99.4905 43.04L122.963 26.24L122.723 34.88ZM107.171 27.92V44.48L99.2505 51.68V27.92H107.171ZM122.963 26.24V50H115.043V33.44L122.963 26.24ZM149.48 50L146.648 35.6L150.728 26.24L157.688 50H149.48ZM140.264 42.8L150.728 26.24L151.208 36.656L141.704 51.488L140.264 42.8ZM141.704 51.488L132.344 36.656L132.824 26.24L143.144 42.8L141.704 51.488ZM125.912 50L132.824 26.24L136.952 35.6L134.12 50H125.912ZM184.424 27.92L170.023 60.56H161.816L167 48.608L157.111 27.92H166.136L173.288 45.776L168.92 45.728L176.024 27.92H184.424ZM208.276 43.28H214.228V27.92H222.148V43.28H225.988V55.088H218.164V50H186.484V27.92H194.404V43.28H200.356V27.92H208.276V43.28ZM232.736 40.688V36.416H244.544C244.448 35.616 244.256 34.944 243.968 34.4C243.68 33.856 243.28 33.44 242.768 33.152C242.256 32.864 241.616 32.72 240.848 32.72C239.952 32.72 239.184 32.928 238.544 33.344C237.936 33.728 237.456 34.304 237.104 35.072C236.784 35.84 236.624 36.784 236.624 37.904L236.528 38.96C236.528 40.4 236.736 41.552 237.152 42.416C237.568 43.248 238.128 43.856 238.832 44.24C239.536 44.592 240.272 44.768 241.04 44.768C241.872 44.768 242.608 44.672 243.248 44.48C243.888 44.256 244.448 43.968 244.928 43.616C245.408 43.232 245.808 42.768 246.128 42.224L253.616 43.712C252.88 45.088 251.968 46.288 250.88 47.312C249.792 48.304 248.48 49.088 246.944 49.664C245.408 50.208 243.536 50.48 241.328 50.48C238.448 50.48 236.032 49.984 234.08 48.992C232.128 48 230.656 46.64 229.664 44.912C228.672 43.152 228.176 41.168 228.176 38.96C228.176 38.544 228.192 38.144 228.224 37.76C228.256 37.376 228.303 36.992 228.368 36.608C228.688 34.784 229.36 33.184 230.384 31.808C231.408 30.432 232.8 29.36 234.56 28.592C236.352 27.824 238.512 27.44 241.04 27.44C243.792 27.44 246.08 27.888 247.904 28.784C249.728 29.68 251.104 30.96 252.031 32.624C252.96 34.256 253.424 36.24 253.424 38.576C253.424 38.768 253.424 39.056 253.424 39.44C253.424 39.824 253.392 40.24 253.328 40.688H232.736ZM265.125 38.96C265.125 40.016 265.365 40.928 265.845 41.696C266.325 42.464 266.981 43.056 267.813 43.472C268.645 43.856 269.541 44.048 270.501 44.048C271.301 44.048 272.085 43.936 272.853 43.712C273.621 43.488 274.325 43.152 274.965 42.704C275.637 42.224 276.197 41.648 276.645 40.976V48.752C275.877 49.232 274.965 49.648 273.909 50C272.853 50.32 271.461 50.48 269.733 50.48C267.205 50.48 264.949 50.016 262.965 49.088C260.981 48.128 259.413 46.784 258.261 45.056C257.141 43.328 256.581 41.296 256.581 38.96C256.581 36.592 257.141 34.56 258.261 32.864C259.413 31.136 260.981 29.808 262.965 28.88C264.949 27.92 267.205 27.44 269.733 27.44C271.461 27.44 272.853 27.616 273.909 27.968C274.965 28.288 275.877 28.672 276.645 29.12V36.896C276.197 36.192 275.605 35.616 274.869 35.168C274.165 34.72 273.429 34.4 272.661 34.208C271.893 33.984 271.173 33.872 270.501 33.872C269.541 33.872 268.645 34.096 267.813 34.544C266.981 34.992 266.325 35.6 265.845 36.368C265.365 37.136 265.125 38 265.125 38.96ZM279.287 27.92H295.559V34.64H279.287V27.92ZM283.463 28.88H291.383V50H283.463V28.88ZM304.133 38.48H312.485C314.021 38.48 315.397 38.64 316.613 38.96C317.829 39.28 318.789 39.84 319.493 40.64C320.197 41.44 320.549 42.56 320.549 44C320.549 45.664 319.989 47.088 318.869 48.272C317.781 49.424 315.973 50 313.445 50H304.133V45.104H310.517C311.413 45.104 312.021 44.896 312.341 44.48C312.661 44.064 312.821 43.616 312.821 43.136C312.821 42.88 312.773 42.656 312.677 42.464C312.613 42.24 312.485 42.048 312.293 41.888C312.133 41.696 311.909 41.552 311.621 41.456C311.333 41.328 310.965 41.264 310.517 41.264H304.133V38.48ZM304.133 39.44V36.416H310.037C310.357 36.416 310.613 36.368 310.805 36.272C311.029 36.176 311.221 36.048 311.381 35.888C311.541 35.696 311.653 35.504 311.717 35.312C311.813 35.088 311.861 34.864 311.861 34.64C311.861 34.16 311.701 33.744 311.381 33.392C311.093 33.008 310.645 32.816 310.037 32.816H304.133V27.92H312.005C313.381 27.92 314.629 28.128 315.749 28.544C316.901 28.928 317.829 29.568 318.533 30.464C319.237 31.328 319.589 32.48 319.589 33.92C319.589 35.168 319.237 36.208 318.533 37.04C317.829 37.84 316.901 38.448 315.749 38.864C314.629 39.248 313.381 39.44 312.005 39.44H304.133ZM299.381 27.92H307.301V50H299.381V27.92ZM331.392 43.376C331.392 43.824 331.504 44.192 331.728 44.48C331.984 44.768 332.32 44.992 332.736 45.152C333.184 45.28 333.632 45.344 334.08 45.344C334.848 45.344 335.568 45.216 336.24 44.96C336.944 44.672 337.504 44.224 337.92 43.616C338.336 42.976 338.544 42.096 338.544 40.976L339.312 43.76C339.312 45.168 338.944 46.384 338.208 47.408C337.504 48.4 336.544 49.168 335.328 49.712C334.112 50.224 332.736 50.48 331.2 50.48C329.6 50.48 328.176 50.224 326.928 49.712C325.712 49.168 324.752 48.4 324.048 47.408C323.376 46.384 323.04 45.168 323.04 43.76C323.04 42.32 323.44 41.072 324.24 40.016C325.04 38.96 326.16 38.144 327.6 37.568C329.04 36.992 330.72 36.704 332.64 36.704C333.664 36.704 334.688 36.816 335.712 37.04C336.736 37.232 337.632 37.504 338.4 37.856C339.2 38.176 339.776 38.528 340.128 38.912V42.656C339.36 42.08 338.576 41.648 337.776 41.36C336.976 41.072 335.968 40.928 334.752 40.928C334.08 40.928 333.488 41.04 332.976 41.264C332.464 41.456 332.064 41.744 331.776 42.128C331.52 42.48 331.392 42.896 331.392 43.376ZM327.696 35.216L325.056 29.744C326.464 29.136 328.08 28.576 329.904 28.064C331.728 27.52 333.632 27.248 335.616 27.248C337.696 27.248 339.552 27.536 341.184 28.112C342.816 28.656 344.096 29.472 345.024 30.56C345.984 31.648 346.464 32.976 346.464 34.544V50H338.544V36.416C338.544 35.52 338.224 34.8 337.584 34.256C336.976 33.68 336.064 33.392 334.848 33.392C333.792 33.392 332.784 33.504 331.824 33.728C330.896 33.952 330.064 34.208 329.328 34.496C328.592 34.752 328.048 34.992 327.696 35.216Z" fill="black"/>
<path d="M197.584 100.976C197.968 101.904 198.512 102.8 199.216 103.664C199.92 104.496 200.528 105.12 201.04 105.536C200.272 107.136 199.328 108.304 198.208 109.04C197.28 109.648 196.288 110 195.232 110.096C194.656 110.16 194 110.112 193.264 109.952C192.528 109.792 191.76 109.344 190.96 108.608C190.192 107.84 189.424 106.624 188.656 104.96C188.432 104.416 187.936 104.032 187.168 103.808C186.4 103.584 185.584 103.456 184.72 103.424C183.856 103.36 183.152 103.328 182.608 103.328C182.064 103.328 181.392 103.344 180.592 103.376C179.824 103.408 179.12 103.536 178.48 103.76C177.84 103.984 177.456 104.384 177.328 104.96C177.2 105.472 177.184 106 177.28 106.544C177.376 107.088 177.584 107.44 177.904 107.6C177.36 108.112 176.816 108.56 176.272 108.944C175.76 109.328 175.232 109.632 174.688 109.856C174.016 110.144 173.312 110.288 172.576 110.288C171.872 110.288 171.072 110.128 170.176 109.808C169.76 109.648 169.328 109.36 168.88 108.944C168.432 108.528 168.128 107.952 167.968 107.216C167.808 106.48 167.936 105.552 168.352 104.432C168.384 104.336 168.544 103.824 168.832 102.896C169.12 101.968 169.488 100.752 169.936 99.248C170.416 97.712 170.928 96.016 171.472 94.16C172.048 92.304 172.624 90.4 173.2 88.448C173.808 86.464 174.384 84.56 174.928 82.736C175.504 80.912 176.016 79.264 176.464 77.792C176.912 76.32 177.264 75.152 177.52 74.288C177.776 73.424 177.904 72.992 177.904 72.992C178.192 72.832 178.72 72.64 179.488 72.416C180.288 72.16 181.136 72.016 182.032 71.984C183.024 71.92 183.984 72.048 184.912 72.368C185.872 72.688 186.608 73.328 187.12 74.288C187.344 74.672 187.68 75.408 188.128 76.496C188.576 77.584 189.104 78.896 189.712 80.432C190.32 81.968 190.96 83.616 191.632 85.376C192.304 87.104 192.96 88.832 193.6 90.56C194.272 92.256 194.88 93.84 195.424 95.312C195.968 96.784 196.432 98.032 196.816 99.056C197.2 100.048 197.456 100.688 197.584 100.976ZM182.464 94.784C183.296 94.72 183.776 94.48 183.904 94.064C184.064 93.648 184.16 93.168 184.192 92.624C184.192 92.272 184.128 91.84 184 91.328C183.904 90.816 183.744 90.368 183.52 89.984C183.328 89.568 183.072 89.36 182.752 89.36C182.304 89.36 181.808 89.68 181.264 90.32C180.752 90.928 180.464 91.552 180.4 92.192C180.304 92.8 180.352 93.392 180.544 93.968C180.768 94.544 181.408 94.816 182.464 94.784ZM205.674 106.064C205.674 105.808 205.674 105.12 205.674 104C205.674 102.848 205.674 101.424 205.674 99.728C205.674 98.032 205.658 96.176 205.626 94.16C205.626 92.112 205.626 90.048 205.626 87.968C205.626 85.888 205.61 83.92 205.578 82.064C205.578 80.176 205.562 78.544 205.53 77.168C205.498 75.856 205.386 74.768 205.194 73.904C205.002 73.008 204.89 72.464 204.858 72.272C205.242 72.208 205.818 72.192 206.586 72.224C207.354 72.224 208.202 72.32 209.13 72.512C210.09 72.672 211.002 72.944 211.866 73.328C212.73 73.68 213.45 74.192 214.026 74.864C214.602 75.504 214.906 76.32 214.938 77.312C214.97 77.92 214.986 78.992 214.986 80.528C215.018 82.032 215.034 83.808 215.034 85.856C215.066 87.872 215.098 89.952 215.13 92.096C215.162 94.208 215.178 96.208 215.178 98.096C215.21 99.984 215.226 101.568 215.226 102.848C215.258 104.096 215.273 104.832 215.273 105.056C215.273 105.728 215.45 106.384 215.802 107.024C216.186 107.632 216.586 108.016 217.002 108.176C216.81 108.432 216.378 108.768 215.706 109.184C215.034 109.6 214.25 109.984 213.354 110.336C212.49 110.688 211.61 110.912 210.714 111.008C209.978 111.072 209.21 110.896 208.41 110.48C207.642 110.096 206.986 109.52 206.442 108.752C205.93 107.984 205.674 107.088 205.674 106.064ZM247.338 101.312C247.37 102.016 247.418 102.88 247.482 103.904C247.578 104.928 247.786 105.92 248.106 106.88C248.426 107.84 248.938 108.608 249.642 109.184C248.842 109.728 248.026 110.112 247.194 110.336C246.362 110.592 245.546 110.656 244.746 110.528C244.522 110.464 244.282 110.384 244.026 110.288C243.77 110.224 243.418 110.128 242.97 110C242.234 109.776 241.37 109.728 240.378 109.856C239.386 109.984 238.346 110.144 237.258 110.336C236.202 110.56 235.162 110.672 234.138 110.672C232.474 110.672 230.81 110.384 229.146 109.808C227.482 109.2 225.978 108.272 224.634 107.024C223.29 105.776 222.266 104.192 221.562 102.272C220.858 100.352 220.65 98.048 220.938 95.36C221.13 93.504 221.658 91.808 222.522 90.272C223.386 88.704 224.442 87.36 225.69 86.24C226.97 85.088 228.314 84.208 229.722 83.6C231.162 82.96 232.554 82.656 233.898 82.688C234.922 82.72 235.706 82.752 236.25 82.784C236.826 82.816 237.562 82.896 238.458 83.024C239.002 83.088 239.69 83.008 240.522 82.784C241.354 82.56 242.186 82.32 243.018 82.064C243.882 81.776 244.618 81.632 245.226 81.632C246.154 81.6 246.81 81.632 247.194 81.728C247.578 81.792 247.898 81.856 248.154 81.92C247.962 82.496 247.802 83.36 247.674 84.512C247.546 85.664 247.45 86.976 247.386 88.448C247.354 89.888 247.322 91.392 247.29 92.96C247.258 94.528 247.242 96.032 247.242 97.472C247.274 98.912 247.306 100.192 247.338 101.312ZM229.29 96.896C229.354 98.496 229.642 99.744 230.154 100.64C230.698 101.504 231.338 102.112 232.074 102.464C232.842 102.816 233.578 102.992 234.282 102.992C235.69 103.024 236.73 102.48 237.402 101.36C238.074 100.24 238.394 98.688 238.362 96.704C238.362 96.16 238.298 95.52 238.17 94.784C238.074 94.048 237.882 93.328 237.594 92.624C237.338 91.92 236.97 91.328 236.49 90.848C236.042 90.368 235.45 90.128 234.714 90.128C233.242 90.128 231.946 90.672 230.826 91.76C229.738 92.848 229.226 94.56 229.29 96.896ZM280.011 95.36C280.299 98.048 280.091 100.352 279.387 102.272C278.683 104.192 277.659 105.776 276.315 107.024C274.971 108.272 273.467 109.2 271.803 109.808C270.139 110.384 268.475 110.672 266.811 110.672C266.043 110.672 265.099 110.592 263.979 110.432C262.891 110.272 261.899 110.336 261.003 110.624C260.715 110.72 260.443 110.8 260.187 110.864C259.931 110.928 259.595 110.944 259.179 110.912C258.795 110.88 258.299 110.704 257.691 110.384C257.083 110.064 256.507 109.6 255.963 108.992C255.419 108.352 255.035 107.6 254.811 106.736C254.555 105.776 254.331 104.464 254.139 102.8C253.979 101.104 253.851 99.216 253.755 97.136C253.659 95.056 253.595 92.912 253.563 90.704C253.531 88.464 253.499 86.288 253.467 84.176C253.467 82.032 253.467 80.096 253.467 78.368C253.499 76.64 253.515 75.232 253.515 74.144C253.515 73.024 253.499 72.368 253.467 72.176C253.947 72.08 254.651 72.064 255.579 72.128C256.539 72.16 257.531 72.32 258.555 72.608C259.579 72.864 260.491 73.312 261.291 73.952C262.091 74.56 262.587 75.408 262.779 76.496C262.939 77.552 263.067 78.576 263.163 79.568C263.291 80.528 263.707 81.232 264.411 81.68C264.667 81.84 265.019 81.968 265.467 82.064C265.947 82.128 266.443 82.176 266.955 82.208C269.291 82.24 271.387 82.848 273.243 84.032C275.131 85.184 276.667 86.752 277.851 88.736C279.035 90.688 279.755 92.896 280.011 95.36ZM267.339 103.424C268.459 103.392 269.355 103.072 270.027 102.464C270.731 101.824 271.243 101.024 271.563 100.064C271.883 99.104 272.043 98.128 272.043 97.136C272.043 96.112 271.931 95.088 271.707 94.064C271.483 93.008 271.051 92.128 270.411 91.424C269.803 90.688 268.923 90.32 267.771 90.32C266.843 90.32 266.043 90.656 265.371 91.328C264.699 91.968 264.187 92.784 263.835 93.776C263.483 94.736 263.291 95.68 263.259 96.608C263.227 97.504 263.355 98.496 263.643 99.584C263.931 100.64 264.379 101.552 264.987 102.32C265.627 103.056 266.411 103.424 267.339 103.424ZM308.608 103.904C308.608 104.192 308.656 104.624 308.752 105.2C308.848 105.776 308.976 106.368 309.136 106.976C309.328 107.584 309.52 108.128 309.712 108.608C309.904 109.056 310.096 109.328 310.288 109.424C309.84 109.968 309.12 110.4 308.128 110.72C307.136 111.072 306.144 111.136 305.152 110.912C304.384 110.688 303.696 110.48 303.088 110.288C302.48 110.096 301.648 110.016 300.592 110.048C299.824 110.08 299.056 110.16 298.288 110.288C297.552 110.416 296.8 110.56 296.032 110.72C295.648 110.784 294.976 110.8 294.016 110.768C293.088 110.768 292.064 110.656 290.944 110.432C289.856 110.208 288.848 109.824 287.92 109.28C286.704 108.544 285.792 107.472 285.184 106.064C284.576 104.656 284.224 103.216 284.128 101.744C284.128 101.392 284.112 100.704 284.08 99.68C284.08 98.656 284.064 97.44 284.032 96.032C284.032 94.624 284.016 93.168 283.984 91.664C283.984 90.16 283.968 88.768 283.936 87.488C283.936 86.176 283.936 85.12 283.936 84.32C283.936 83.488 283.936 83.072 283.936 83.072C284.224 83.04 284.704 83.008 285.376 82.976C286.08 82.912 286.848 82.912 287.68 82.976C288.512 83.04 289.312 83.2 290.08 83.456C290.88 83.68 291.552 84.048 292.096 84.56C292.672 85.072 293.008 85.76 293.104 86.624C293.168 87.328 293.216 87.968 293.248 88.544C293.28 89.12 293.296 89.76 293.296 90.464C293.296 91.136 293.264 91.984 293.2 93.008C293.168 94 293.12 95.264 293.056 96.8C292.992 98.048 292.96 99.12 292.96 100.016C292.992 100.912 293.216 101.584 293.632 102.032C294.048 102.48 294.784 102.672 295.84 102.608C296.544 102.576 297.12 102.304 297.568 101.792C298.048 101.248 298.432 100.592 298.72 99.824C299.008 99.056 299.2 98.272 299.296 97.472C299.424 96.672 299.488 95.968 299.488 95.36C299.488 95.232 299.472 94.736 299.44 93.872C299.44 93.008 299.424 91.984 299.392 90.8C299.392 89.584 299.376 88.384 299.344 87.2C299.344 86.016 299.344 85.04 299.344 84.272C299.344 83.472 299.344 83.072 299.344 83.072C299.632 83.04 300.112 83.04 300.784 83.072C301.456 83.072 302.208 83.136 303.04 83.264C303.872 83.392 304.688 83.616 305.488 83.936C306.288 84.256 306.96 84.704 307.504 85.28C308.08 85.824 308.416 86.528 308.512 87.392C308.704 89.248 308.736 91.52 308.608 94.208C308.512 96.864 308.512 100.096 308.608 103.904ZM340.235 82.16C340.299 83.632 340.315 85.056 340.283 86.432C340.283 87.776 340.283 88.784 340.283 89.456C340.283 89.808 340.283 90.64 340.283 91.952C340.315 93.264 340.331 94.848 340.331 96.704C340.363 98.56 340.363 100.48 340.331 102.464C340.299 104.448 340.219 106.288 340.091 107.984C339.963 109.84 339.563 111.472 338.891 112.88C338.251 114.288 337.307 115.328 336.059 116C334.811 116.672 333.211 116.864 331.259 116.576C329.787 116.352 328.667 115.904 327.899 115.232C327.163 114.56 326.683 113.776 326.459 112.88C326.267 112.016 326.267 111.12 326.459 110.192C326.683 109.296 327.003 108.496 327.419 107.792C327.707 108.144 328.091 108.528 328.571 108.944C329.083 109.328 329.627 109.632 330.203 109.856C330.811 110.048 331.387 110.08 331.931 109.952C332.283 109.856 332.555 109.68 332.747 109.424C332.939 109.136 333.003 108.8 332.939 108.416C332.875 108.032 332.411 107.6 331.547 107.12C330.715 106.608 329.627 106.384 328.283 106.448C327.771 106.48 327.371 106.512 327.083 106.544C326.795 106.576 326.459 106.592 326.075 106.592C323.867 106.592 321.835 106.144 319.979 105.248C318.123 104.352 316.651 102.976 315.563 101.12C314.475 99.264 313.995 96.896 314.123 94.016C314.219 92.16 314.667 90.496 315.467 89.024C316.267 87.52 317.291 86.256 318.539 85.232C319.819 84.176 321.163 83.392 322.571 82.88C324.011 82.336 325.403 82.112 326.747 82.208C326.907 82.208 327.227 82.256 327.707 82.352C328.187 82.448 328.667 82.544 329.147 82.64C329.627 82.704 329.947 82.752 330.107 82.784C331.227 82.976 332.475 83.008 333.851 82.88C335.259 82.72 336.459 82.544 337.451 82.352C338.091 82.256 338.715 82.208 339.323 82.208C339.931 82.176 340.235 82.16 340.235 82.16ZM325.979 90.56C324.699 90.688 323.739 91.168 323.099 92C322.491 92.832 322.331 93.872 322.619 95.12C322.747 95.696 323.051 96.272 323.531 96.848C324.043 97.392 324.651 97.824 325.355 98.144C326.059 98.464 326.763 98.592 327.467 98.528C328.171 98.464 328.795 98.352 329.339 98.192C329.883 98 330.315 97.616 330.635 97.04C330.955 96.464 331.115 95.552 331.115 94.304C331.115 93.056 330.859 92.16 330.347 91.616C329.867 91.04 329.227 90.704 328.427 90.608C327.659 90.48 326.843 90.464 325.979 90.56ZM370.713 101.312C370.745 102.016 370.793 102.88 370.857 103.904C370.953 104.928 371.161 105.92 371.481 106.88C371.801 107.84 372.313 108.608 373.017 109.184C372.217 109.728 371.401 110.112 370.569 110.336C369.737 110.592 368.921 110.656 368.121 110.528C367.897 110.464 367.657 110.384 367.401 110.288C367.145 110.224 366.793 110.128 366.345 110C365.609 109.776 364.745 109.728 363.753 109.856C362.761 109.984 361.721 110.144 360.633 110.336C359.577 110.56 358.537 110.672 357.513 110.672C355.849 110.672 354.185 110.384 352.521 109.808C350.857 109.2 349.353 108.272 348.009 107.024C346.665 105.776 345.641 104.192 344.937 102.272C344.233 100.352 344.025 98.048 344.313 95.36C344.505 93.504 345.033 91.808 345.897 90.272C346.761 88.704 347.817 87.36 349.065 86.24C350.345 85.088 351.689 84.208 353.097 83.6C354.537 82.96 355.929 82.656 357.273 82.688C358.297 82.72 359.081 82.752 359.625 82.784C360.201 82.816 360.937 82.896 361.833 83.024C362.377 83.088 363.065 83.008 363.897 82.784C364.729 82.56 365.561 82.32 366.393 82.064C367.257 81.776 367.993 81.632 368.601 81.632C369.529 81.6 370.185 81.632 370.569 81.728C370.953 81.792 371.273 81.856 371.529 81.92C371.337 82.496 371.177 83.36 371.049 84.512C370.921 85.664 370.825 86.976 370.761 88.448C370.729 89.888 370.697 91.392 370.665 92.96C370.633 94.528 370.617 96.032 370.617 97.472C370.649 98.912 370.681 100.192 370.713 101.312ZM352.665 96.896C352.729 98.496 353.017 99.744 353.529 100.64C354.073 101.504 354.713 102.112 355.449 102.464C356.217 102.816 356.953 102.992 357.657 102.992C359.065 103.024 360.105 102.48 360.777 101.36C361.449 100.24 361.769 98.688 361.737 96.704C361.737 96.16 361.673 95.52 361.545 94.784C361.449 94.048 361.257 93.328 360.969 92.624C360.713 91.92 360.345 91.328 359.865 90.848C359.417 90.368 358.825 90.128 358.089 90.128C356.617 90.128 355.321 90.672 354.201 91.76C353.113 92.848 352.601 94.56 352.665 96.896ZM429.421 88.16C429.773 88.512 430.029 89.04 430.189 89.744C430.381 90.416 430.413 91.168 430.285 92C430.189 92.704 429.949 93.424 429.565 94.16C429.181 94.896 428.605 95.536 427.837 96.08C427.229 96.496 426.781 97.184 426.493 98.144C426.205 99.072 426.013 100.016 425.917 100.976C425.789 102.064 425.501 103.184 425.053 104.336C424.637 105.488 423.981 106.512 423.085 107.408C422.381 108.24 421.357 109.008 420.013 109.712C418.701 110.384 416.909 110.704 414.637 110.672C413.357 110.64 411.853 110.416 410.125 110C408.429 109.584 406.701 108.912 404.941 107.984C403.213 107.024 401.629 105.744 400.189 104.144C398.749 102.544 397.645 100.56 396.877 98.192C396.109 95.824 395.885 93.008 396.205 89.744C396.493 86.64 397.261 83.952 398.509 81.68C399.789 79.408 401.373 77.536 403.261 76.064C405.149 74.592 407.181 73.488 409.357 72.752C411.533 71.984 413.693 71.584 415.837 71.552C417.725 71.488 419.373 71.776 420.781 72.416C422.189 73.056 423.309 73.888 424.141 74.912C425.005 75.904 425.581 76.976 425.869 78.128C426.189 79.248 426.189 80.272 425.869 81.2C425.613 82 425.245 82.656 424.765 83.168C424.317 83.68 423.821 84.032 423.277 84.224C422.605 84.48 421.917 84.528 421.213 84.368C420.509 84.176 419.901 83.776 419.389 83.168C419.933 82.752 420.093 82.304 419.869 81.824C419.677 81.312 419.181 80.896 418.381 80.576C417.581 80.224 416.557 80.096 415.309 80.192C414.349 80.256 413.325 80.528 412.237 81.008C411.181 81.488 410.173 82.16 409.213 83.024C408.285 83.888 407.517 84.944 406.909 86.192C406.301 87.44 405.965 88.864 405.901 90.464C405.805 92.672 405.997 94.464 406.477 95.84C406.989 97.216 407.661 98.256 408.493 98.96C409.325 99.664 410.221 100.144 411.181 100.4C412.141 100.656 413.069 100.784 413.965 100.784C414.733 100.784 415.357 100.544 415.837 100.064C416.349 99.584 416.557 99.008 416.461 98.336C416.365 97.664 415.789 97.024 414.733 96.416C413.741 95.872 413.101 95.344 412.813 94.832C412.525 94.32 412.285 93.808 412.093 93.296C411.773 92.464 411.501 91.568 411.277 90.608C411.053 89.648 410.957 88.832 410.989 88.16C411.245 88.256 411.901 88.416 412.957 88.64C414.013 88.832 415.229 89.008 416.605 89.168C418.013 89.328 419.341 89.424 420.589 89.456C421.901 89.456 423.165 89.424 424.381 89.36C425.597 89.264 426.653 89.12 427.549 88.928C428.477 88.736 429.101 88.48 429.421 88.16ZM458.842 103.904C458.842 104.192 458.89 104.624 458.986 105.2C459.082 105.776 459.21 106.368 459.37 106.976C459.562 107.584 459.754 108.128 459.946 108.608C460.138 109.056 460.33 109.328 460.522 109.424C460.074 109.968 459.354 110.4 458.362 110.72C457.37 111.072 456.378 111.136 455.386 110.912C454.618 110.688 453.93 110.48 453.322 110.288C452.714 110.096 451.882 110.016 450.826 110.048C450.058 110.08 449.29 110.16 448.522 110.288C447.786 110.416 447.034 110.56 446.266 110.72C445.882 110.784 445.21 110.8 444.25 110.768C443.322 110.768 442.298 110.656 441.178 110.432C440.09 110.208 439.082 109.824 438.154 109.28C436.938 108.544 436.026 107.472 435.418 106.064C434.81 104.656 434.458 103.216 434.362 101.744C434.362 101.392 434.346 100.704 434.314 99.68C434.314 98.656 434.298 97.44 434.266 96.032C434.266 94.624 434.25 93.168 434.218 91.664C434.218 90.16 434.202 88.768 434.17 87.488C434.17 86.176 434.17 85.12 434.17 84.32C434.17 83.488 434.17 83.072 434.17 83.072C434.458 83.04 434.938 83.008 435.61 82.976C436.314 82.912 437.082 82.912 437.914 82.976C438.746 83.04 439.546 83.2 440.314 83.456C441.114 83.68 441.786 84.048 442.33 84.56C442.906 85.072 443.242 85.76 443.338 86.624C443.402 87.328 443.45 87.968 443.482 88.544C443.514 89.12 443.53 89.76 443.53 90.464C443.53 91.136 443.498 91.984 443.434 93.008C443.402 94 443.354 95.264 443.29 96.8C443.226 98.048 443.194 99.12 443.194 100.016C443.226 100.912 443.45 101.584 443.866 102.032C444.282 102.48 445.018 102.672 446.074 102.608C446.778 102.576 447.354 102.304 447.802 101.792C448.282 101.248 448.666 100.592 448.954 99.824C449.242 99.056 449.434 98.272 449.53 97.472C449.658 96.672 449.722 95.968 449.722 95.36C449.722 95.232 449.706 94.736 449.674 93.872C449.674 93.008 449.658 91.984 449.626 90.8C449.626 89.584 449.61 88.384 449.578 87.2C449.578 86.016 449.578 85.04 449.578 84.272C449.578 83.472 449.578 83.072 449.578 83.072C449.866 83.04 450.346 83.04 451.018 83.072C451.69 83.072 452.442 83.136 453.274 83.264C454.106 83.392 454.922 83.616 455.722 83.936C456.522 84.256 457.194 84.704 457.738 85.28C458.314 85.824 458.65 86.528 458.746 87.392C458.938 89.248 458.97 91.52 458.842 94.208C458.746 96.864 458.746 100.096 458.842 103.904ZM469.734 81.44C468.646 81.472 467.67 81.168 466.806 80.528C465.974 79.888 465.334 79.104 464.886 78.176C464.47 77.216 464.31 76.304 464.406 75.44C464.566 74.128 465.158 73.2 466.182 72.656C467.206 72.112 468.278 71.824 469.398 71.792C470.998 71.728 472.246 72.144 473.142 73.04C474.038 73.936 474.486 74.96 474.486 76.112C474.486 76.88 474.31 77.664 473.958 78.464C473.638 79.264 473.126 79.952 472.422 80.528C471.718 81.072 470.822 81.376 469.734 81.44ZM474.822 105.152C474.854 105.728 475.03 106.224 475.35 106.64C475.702 107.024 476.118 107.392 476.598 107.744C476.374 108.032 476.086 108.336 475.734 108.656C475.382 108.976 474.854 109.28 474.15 109.568C473.478 109.824 472.502 110.032 471.222 110.192C470.806 110.224 470.278 110.176 469.638 110.048C468.998 109.952 468.358 109.648 467.718 109.136C467.11 108.592 466.614 107.744 466.23 106.592C465.846 105.408 465.686 103.792 465.75 101.744C465.782 101.392 465.782 100.704 465.75 99.68C465.75 98.656 465.734 97.44 465.702 96.032C465.702 94.624 465.686 93.168 465.654 91.664C465.654 90.16 465.638 88.768 465.605 87.488C465.605 86.176 465.59 85.12 465.558 84.32C465.558 83.488 465.558 83.072 465.558 83.072C465.846 83.04 466.326 83.008 466.998 82.976C467.702 82.912 468.47 82.912 469.302 82.976C470.134 83.04 470.934 83.2 471.702 83.456C472.502 83.68 473.174 84.048 473.718 84.56C474.294 85.072 474.63 85.76 474.726 86.624C474.886 87.84 474.95 89.472 474.918 91.52C474.886 93.536 474.838 95.744 474.773 98.144C474.71 100.512 474.726 102.848 474.822 105.152ZM506.98 104.048C507.524 104.688 508.324 105.136 509.38 105.392C509.22 106.064 509.012 106.784 508.756 107.552C508.532 108.32 508.164 108.992 507.652 109.568C507.172 110.144 506.468 110.512 505.54 110.672C505.124 110.768 504.596 110.736 503.956 110.576C503.316 110.416 502.548 110.224 501.652 110C501.076 109.84 500.34 109.808 499.444 109.904C498.548 109.968 497.7 110.064 496.9 110.192C496.132 110.32 495.62 110.416 495.364 110.48C495.012 110.576 494.66 110.624 494.308 110.624C493.956 110.656 493.604 110.672 493.252 110.672C491.588 110.672 489.94 110.384 488.308 109.808C486.708 109.2 485.268 108.272 483.988 107.024C482.708 105.776 481.732 104.192 481.06 102.272C480.42 100.352 480.244 98.048 480.532 95.36C480.724 93.504 481.22 91.776 482.02 90.176C482.852 88.576 483.876 87.184 485.092 86C486.308 84.784 487.604 83.856 488.98 83.216C490.388 82.544 491.764 82.208 493.108 82.208C493.396 82.208 493.668 82.208 493.924 82.208C494.212 82.208 494.484 82.192 494.74 82.16C495.316 82.064 495.876 81.744 496.42 81.2C496.964 80.656 497.332 79.984 497.524 79.184C497.62 78.736 497.684 78.208 497.716 77.6C497.748 76.992 497.764 76.624 497.764 76.496C497.86 75.76 498.132 75.136 498.58 74.624C499.028 74.08 499.556 73.648 500.164 73.328C500.996 72.88 501.908 72.56 502.9 72.368C503.892 72.176 504.804 72.08 505.636 72.08C506.5 72.048 507.14 72.08 507.556 72.176C507.524 72.368 507.46 73.056 507.364 74.24C507.268 75.424 507.156 76.912 507.028 78.704C506.9 80.496 506.772 82.464 506.644 84.608C506.516 86.72 506.404 88.848 506.308 90.992C506.244 93.136 506.212 95.136 506.212 96.992C506.212 98.848 506.276 100.4 506.404 101.648C506.532 102.896 506.724 103.696 506.98 104.048ZM489.124 96.944C489.028 98.192 489.172 99.232 489.556 100.064C489.972 100.864 490.484 101.472 491.092 101.888C491.732 102.272 492.356 102.48 492.964 102.512C494.116 102.544 494.996 102.256 495.604 101.648C496.244 101.008 496.676 100.176 496.9 99.152C497.124 98.096 497.236 96.976 497.236 95.792C497.236 94 496.884 92.704 496.18 91.904C495.476 91.104 494.372 90.752 492.868 90.848C491.908 90.912 491.076 91.376 490.372 92.24C489.7 93.104 489.284 94.672 489.124 96.944ZM535.94 97.952C536.74 98.496 537.252 99.28 537.476 100.304C537.732 101.296 537.7 102.384 537.38 103.568C537.092 104.752 536.5 105.888 535.604 106.976C534.708 108.032 533.492 108.912 531.956 109.616C530.452 110.32 528.628 110.688 526.484 110.72C524.692 110.752 522.932 110.528 521.204 110.048C519.508 109.568 517.956 108.832 516.548 107.84C515.172 106.848 514.052 105.568 513.188 104C512.324 102.432 511.844 100.56 511.748 98.384C511.716 97.936 511.716 97.472 511.748 96.992C511.78 96.512 511.812 96.016 511.844 95.504C511.844 95.376 511.844 95.248 511.844 95.12C511.876 94.992 511.908 94.864 511.94 94.736C512.26 92.816 512.916 91.056 513.908 89.456C514.932 87.856 516.18 86.496 517.652 85.376C519.124 84.256 520.692 83.44 522.356 82.928C524.052 82.384 525.716 82.192 527.348 82.352C529.876 82.608 531.828 83.28 533.204 84.368C534.612 85.456 535.524 86.8 535.94 88.4C536.388 89.968 536.404 91.664 535.988 93.488C535.764 94.384 535.252 95.28 534.452 96.176C533.684 97.04 532.724 97.824 531.572 98.528C530.42 99.2 529.188 99.728 527.876 100.112C526.596 100.464 525.348 100.608 524.132 100.544C523.524 100.512 523.204 100.704 523.172 101.12C523.14 101.504 523.316 101.936 523.7 102.416C524.084 102.864 524.596 103.168 525.236 103.328C526.74 103.648 528.148 103.664 529.46 103.376C530.804 103.056 531.828 102.624 532.532 102.08C533.108 101.632 533.716 101.04 534.356 100.304C534.996 99.536 535.524 98.752 535.94 97.952ZM525.428 93.104C526.164 93.04 526.804 92.816 527.348 92.432C527.924 92.016 528.212 91.584 528.212 91.136C528.244 90.496 528.084 89.984 527.732 89.6C527.412 89.184 526.852 88.992 526.052 89.024C525.156 89.056 524.292 89.184 523.46 89.408C522.628 89.632 522.132 90.096 521.972 90.8C521.876 91.28 522.02 91.696 522.404 92.048C522.788 92.4 523.268 92.672 523.844 92.864C524.42 93.024 524.948 93.104 525.428 93.104Z" fill="#007AFF"/>
</svg>
